<svg width="50" height="50" viewBox="0 0 160 160" fill="none" xmlns="http://www.w3.org/2000/svg">
<path d="M157.66 146.34C158.403 147.083 158.993 147.966 159.395 148.937C159.797 149.908 160.004 150.949 160.004 152C160.004 153.051 159.797 154.092 159.395 155.063C158.993 156.034 158.403 156.917 157.66 157.66C156.917 158.403 156.034 158.993 155.063 159.395C154.092 159.797 153.051 160.004 152 160.004C150.949 160.004 149.908 159.797 148.937 159.395C147.966 158.993 147.083 158.403 146.34 157.66L80 91.31L13.66 157.66C12.1589 159.161 10.1229 160.004 7.99999 160.004C5.87708 160.004 3.84112 159.161 2.33999 157.66C0.838867 156.159 -0.00445552 154.123 -0.00445557 152C-0.00445561 149.877 0.838867 147.841 2.33999 146.34L68.69 80L2.33999 13.66C0.838867 12.1589 -0.00445558 10.1229 -0.00445557 7.99999C-0.00445555 5.87708 0.838867 3.84112 2.33999 2.33999C3.84112 0.838867 5.87708 -0.00445555 7.99999 -0.00445557C10.1229 -0.00445558 12.1589 0.838867 13.66 2.33999L80 68.69L146.34 2.33999C147.841 0.838867 149.877 -0.00445561 152 -0.00445557C154.123 -0.00445552 156.159 0.838867 157.66 2.33999C159.161 3.84112 160.004 5.87708 160.004 7.99999C160.004 10.1229 159.161 12.1589 157.66 13.66L91.31 80L157.66 146.34Z" fill="black"/>
</svg>
